<?xml version="1.0" encoding="utf-8"?>
<!-- Generator: Adobe Illustrator 26.0.2, SVG Export Plug-In . SVG Version: 6.00 Build 0)  -->
<svg version="1.1" id="Layer_3" xmlns="http://www.w3.org/2000/svg" xmlns:xlink="http://www.w3.org/1999/xlink" x="0px" y="0px"
	 viewBox="0 0 64 64" style="enable-background:new 0 0 64 64;" xml:space="preserve">
<g>
	<path style="fill:#646465;" d="M58,62H6c-2.209,0-4-1.791-4-4V38c0-2.209,1.791-4,4-4h52c2.209,0,4,1.791,4,4v20
		C62,60.209,60.209,62,58,62z"/>
	<rect x="6" y="38" style="fill:#838384;" width="4" height="4"/>
	<rect x="6" y="46" style="fill:#838384;" width="8" height="4"/>
	<rect x="22" y="54" style="fill:#838384;" width="20" height="4"/>
	<path style="fill:#4179B3;" d="M45,15c0-7.18-5.82-13-13-13S19,7.82,19,15c0,6.454,4.708,11.795,10.874,12.811L32,31l2.126-3.189
		C40.292,26.794,45,21.454,45,15z"/>
	<path style="fill:#6598C5;" d="M32,2c-7.18,0-13,5.82-13,13c0,3.024,1.043,5.795,2.775,8H34c3.314,0,6-2.686,6-6V4.767
		C37.793,3.039,35.02,2,32,2z"/>
	<path style="fill:#CCCCCC;" d="M6,38v3h1c1.105,0,2-0.895,2-2v-1H6z"/>
	<rect x="14" y="38" style="fill:#838384;" width="4" height="4"/>
	<path style="fill:#CCCCCC;" d="M14,38v3h1c1.105,0,2-0.895,2-2v-1H14z"/>
	<rect x="22" y="38" style="fill:#838384;" width="4" height="4"/>
	<path style="fill:#CCCCCC;" d="M22,38v3h1c1.105,0,2-0.895,2-2v-1H22z"/>
	<rect x="30" y="38" style="fill:#838384;" width="4" height="4"/>
	<path style="fill:#CCCCCC;" d="M30,38v3h1c1.105,0,2-0.895,2-2v-1H30z"/>
	<rect x="38" y="38" style="fill:#838384;" width="4" height="4"/>
	<path style="fill:#CCCCCC;" d="M38,38v3h1c1.105,0,2-0.895,2-2v-1H38z"/>
	<rect x="46" y="38" style="fill:#838384;" width="4" height="4"/>
	<path style="fill:#CCCCCC;" d="M46,38v3h1c1.105,0,2-0.895,2-2v-1H46z"/>
	<rect x="54" y="38" style="fill:#838384;" width="4" height="4"/>
	<path style="fill:#CCCCCC;" d="M54,38v3h1c1.105,0,2-0.895,2-2v-1H54z"/>
	<rect x="18" y="46" style="fill:#838384;" width="4" height="4"/>
	<path style="fill:#CCCCCC;" d="M18,46v3h1c1.105,0,2-0.895,2-2v-1H18z"/>
	<rect x="26" y="46" style="fill:#838384;" width="4" height="4"/>
	<path style="fill:#CCCCCC;" d="M26,46v3h1c1.105,0,2-0.895,2-2v-1H26z"/>
	<rect x="34" y="46" style="fill:#838384;" width="4" height="4"/>
	<path style="fill:#CCCCCC;" d="M34,46v3h1c1.105,0,2-0.895,2-2v-1H34z"/>
	<rect x="42" y="46" style="fill:#838384;" width="4" height="4"/>
	<path style="fill:#CCCCCC;" d="M42,46v3h1c1.105,0,2-0.895,2-2v-1H42z"/>
	<rect x="54" y="54" style="fill:#838384;" width="4" height="4"/>
	<path style="fill:#CCCCCC;" d="M54,54v3h1c1.105,0,2-0.895,2-2v-1H54z"/>
	<rect x="46" y="54" style="fill:#838384;" width="4" height="4"/>
	<path style="fill:#CCCCCC;" d="M46,54v3h1c1.105,0,2-0.895,2-2v-1H46z"/>
	<rect x="14" y="54" style="fill:#838384;" width="4" height="4"/>
	<path style="fill:#CCCCCC;" d="M14,54v3h1c1.105,0,2-0.895,2-2v-1H14z"/>
	<rect x="6" y="54" style="fill:#838384;" width="4" height="4"/>
	<path style="fill:#CCCCCC;" d="M6,54v3h1c1.105,0,2-0.895,2-2v-1H6z"/>
	<path style="fill:#CCCCCC;" d="M6,49h5c1.105,0,2-0.895,2-2v-1H6V49z"/>
	<rect x="50" y="46" style="fill:#838384;" width="8" height="4"/>
	<path style="fill:#CCCCCC;" d="M50,49h5c1.105,0,2-0.895,2-2v-1h-7V49z"/>
	<path style="fill:#CCCCCC;" d="M22,54v3h17c1.105,0,2-0.895,2-2v-1H22z"/>
	<g>
		<path d="M58,33H6c-2.757,0-5,2.243-5,5v20c0,2.757,2.243,5,5,5h52c2.757,0,5-2.243,5-5V38C63,35.243,60.757,33,58,33z M61,58
			c0,1.654-1.346,3-3,3H6c-1.654,0-3-1.346-3-3V38c0-1.654,1.346-3,3-3h52c1.654,0,3,1.346,3,3V58z"/>
		<path d="M14,43h4c0.552,0,1-0.447,1-1v-4c0-0.553-0.448-1-1-1h-4c-0.552,0-1,0.447-1,1v4C13,42.553,13.448,43,14,43z M15,39h2v2
			h-2V39z"/>
		<path d="M6,43h4c0.552,0,1-0.447,1-1v-4c0-0.553-0.448-1-1-1H6c-0.552,0-1,0.447-1,1v4C5,42.553,5.448,43,6,43z M7,39h2v2H7V39z"
			/>
		<path d="M6,51h8c0.552,0,1-0.447,1-1v-4c0-0.553-0.448-1-1-1H6c-0.552,0-1,0.447-1,1v4C5,50.553,5.448,51,6,51z M7,47h6v2H7V47z"
			/>
		<path d="M58,45h-8c-0.552,0-1,0.447-1,1v4c0,0.553,0.448,1,1,1h8c0.552,0,1-0.447,1-1v-4C59,45.447,58.552,45,58,45z M57,49h-6v-2
			h6V49z"/>
		<path d="M22,43h4c0.552,0,1-0.447,1-1v-4c0-0.553-0.448-1-1-1h-4c-0.552,0-1,0.447-1,1v4C21,42.553,21.448,43,22,43z M23,39h2v2
			h-2V39z"/>
		<path d="M30,43h4c0.552,0,1-0.447,1-1v-4c0-0.553-0.448-1-1-1h-4c-0.552,0-1,0.447-1,1v4C29,42.553,29.448,43,30,43z M31,39h2v2
			h-2V39z"/>
		<path d="M38,43h4c0.552,0,1-0.447,1-1v-4c0-0.553-0.448-1-1-1h-4c-0.552,0-1,0.447-1,1v4C37,42.553,37.448,43,38,43z M39,39h2v2
			h-2V39z"/>
		<path d="M46,43h4c0.552,0,1-0.447,1-1v-4c0-0.553-0.448-1-1-1h-4c-0.552,0-1,0.447-1,1v4C45,42.553,45.448,43,46,43z M47,39h2v2
			h-2V39z"/>
		<path d="M18,45c-0.552,0-1,0.447-1,1v4c0,0.553,0.448,1,1,1h4c0.552,0,1-0.447,1-1v-4c0-0.553-0.448-1-1-1H18z M21,49h-2v-2h2V49z
			"/>
		<path d="M26,45c-0.552,0-1,0.447-1,1v4c0,0.553,0.448,1,1,1h4c0.552,0,1-0.447,1-1v-4c0-0.553-0.448-1-1-1H26z M29,49h-2v-2h2V49z
			"/>
		<path d="M34,45c-0.552,0-1,0.447-1,1v4c0,0.553,0.448,1,1,1h4c0.552,0,1-0.447,1-1v-4c0-0.553-0.448-1-1-1H34z M37,49h-2v-2h2V49z
			"/>
		<path d="M42,45c-0.552,0-1,0.447-1,1v4c0,0.553,0.448,1,1,1h4c0.552,0,1-0.447,1-1v-4c0-0.553-0.448-1-1-1H42z M45,49h-2v-2h2V49z
			"/>
		<path d="M58,37h-4c-0.552,0-1,0.447-1,1v4c0,0.553,0.448,1,1,1h4c0.552,0,1-0.447,1-1v-4C59,37.447,58.552,37,58,37z M57,41h-2v-2
			h2V41z"/>
		<path d="M42,53H22c-0.552,0-1,0.447-1,1v4c0,0.553,0.448,1,1,1h20c0.552,0,1-0.447,1-1v-4C43,53.447,42.552,53,42,53z M41,57H23
			v-2h18V57z"/>
		<path d="M50,53h-4c-0.552,0-1,0.447-1,1v4c0,0.553,0.448,1,1,1h4c0.552,0,1-0.447,1-1v-4C51,53.447,50.552,53,50,53z M49,57h-2v-2
			h2V57z"/>
		<path d="M58,53h-4c-0.552,0-1,0.447-1,1v4c0,0.553,0.448,1,1,1h4c0.552,0,1-0.447,1-1v-4C59,53.447,58.552,53,58,53z M57,57h-2v-2
			h2V57z"/>
		<path d="M10,53H6c-0.552,0-1,0.447-1,1v4c0,0.553,0.448,1,1,1h4c0.552,0,1-0.447,1-1v-4C11,53.447,10.552,53,10,53z M9,57H7v-2h2
			V57z"/>
		<path d="M18,53h-4c-0.552,0-1,0.447-1,1v4c0,0.553,0.448,1,1,1h4c0.552,0,1-0.447,1-1v-4C19,53.447,18.552,53,18,53z M17,57h-2v-2
			h2V57z"/>
		<path d="M29.278,28.72l1.89,2.835C31.354,31.833,31.666,32,32,32s0.646-0.167,0.832-0.445l1.89-2.835
			C41.284,27.431,46,21.729,46,15c0-7.72-6.28-14-14-14S18,7.28,18,15C18,21.729,22.716,27.431,29.278,28.72z M32,3
			c6.617,0,12,5.383,12,12c0,5.893-4.221,10.866-10.037,11.825c-0.273,0.045-0.516,0.201-0.669,0.432L32,29.197l-1.294-1.94
			c-0.154-0.23-0.396-0.387-0.669-0.432C24.221,25.866,20,20.893,20,15C20,8.383,25.383,3,32,3z"/>
		<path d="M27.707,18.293L24.414,15l3.293-3.293l-1.414-1.414l-4,4c-0.391,0.391-0.391,1.023,0,1.414l4,4L27.707,18.293z"/>
		<path d="M37.707,19.707l4-4c0.391-0.391,0.391-1.023,0-1.414l-4-4l-1.414,1.414L39.586,15l-3.293,3.293L37.707,19.707z"/>
		<rect x="26.901" y="14" transform="matrix(0.1963 -0.9805 0.9805 0.1963 11.0101 43.4328)" width="10.198" height="2"/>
	</g>
</g>
</svg>
